<?xml version="1.0" encoding="utf-8"?>
<svg viewBox="0 0 500 500" xmlns="http://www.w3.org/2000/svg">
  <path fill-rule="evenodd" clip-rule="evenodd" d="M 241.351 226.412 C 241.351 236.599 231.575 241.266 222.908 244.856 C 222.533 245.011 222.202 251.004 222.908 251.004 C 232.461 251.004 247.499 239.994 247.499 226.412 C 247.499 212.83 236.49 201.821 222.908 201.821 C 214.985 201.821 207.937 205.567 203.439 211.386 L 203.439 203.869 L 197.291 203.869 L 197.291 220.265 L 200.365 223.338 L 214.711 223.338 L 214.711 217.19 L 206.931 217.19 C 210.121 211.678 216.082 207.969 222.908 207.969 C 233.095 207.969 241.351 216.227 241.351 226.412 Z" fill="#89D185" style=""/>
  <path fill-rule="evenodd" clip-rule="evenodd" d="M 207.563 241.13 L 207.563 239.145 C 207.563 233.647 203.105 229.194 197.607 229.194 C 192.109 229.194 187.655 233.647 187.655 239.145 L 187.655 241.13 L 184.814 241.13 L 179.142 235.428 L 177.119 237.444 L 182.614 242.965 L 182.549 243.132 C 181.451 246.042 180.834 249.323 180.834 252.788 C 180.834 253.456 180.858 254.118 180.903 254.769 L 180.912 254.916 L 173.873 254.916 L 173.873 257.771 L 181.271 257.771 L 181.291 257.887 C 181.878 261.096 183.01 264.033 184.545 266.519 L 184.661 266.706 L 177.965 273.401 L 179.984 275.421 L 186.366 269.036 L 186.564 269.261 C 189.524 272.644 193.392 274.68 197.607 274.68 C 201.761 274.68 205.574 272.706 208.518 269.414 L 208.712 269.196 L 215.226 275.741 L 217.249 273.729 L 210.441 266.884 L 210.561 266.696 C 212.153 264.173 213.323 261.174 213.923 257.887 L 213.947 257.771 L 221.348 257.771 L 221.348 254.916 L 214.305 254.916 L 214.316 254.769 C 214.36 254.118 214.384 253.456 214.384 252.788 C 214.384 249.275 213.746 245.956 212.621 243.017 L 212.555 242.846 L 217.91 237.495 L 215.891 235.476 L 210.236 241.13 L 207.563 241.13 Z M 190.51 241.13 L 190.51 239.145 C 190.51 235.227 193.688 232.048 197.607 232.048 C 201.529 232.048 204.708 235.227 204.708 239.145 L 204.708 241.13 L 190.51 241.13 Z M 209.936 243.985 L 210.004 244.163 C 210.97 246.734 211.529 249.657 211.529 252.788 C 211.529 258.279 209.814 263.136 207.184 266.556 C 204.554 269.97 201.144 271.826 197.607 271.826 C 194.074 271.826 190.66 269.97 188.034 266.556 C 185.4 263.136 183.689 258.279 183.689 252.788 C 183.689 249.657 184.244 246.734 185.213 244.163 L 185.278 243.985 L 209.936 243.985 Z" fill="#C5C5C5" style=""/>
  <path style="fill: rgb(216, 216, 216); stroke: rgb(0, 0, 0);" d="M 231.527 251.547 L 231.527 251.547"/>
  <path d="M 227.213 215.951 C 225.415 215.95 223.654 216.469 222.143 217.445 C 220.632 218.421 219.435 219.813 218.696 221.453 C 217.958 223.093 217.708 224.912 217.978 226.69 C 218.249 228.469 219.027 230.131 220.22 231.478 L 211.087 241.844 L 212.355 242.976 L 221.464 232.655 C 222.637 233.57 224.01 234.194 225.471 234.471 C 226.932 234.749 228.438 234.673 229.865 234.251 C 231.29 233.829 232.595 233.072 233.67 232.044 C 234.744 231.015 235.558 229.745 236.042 228.339 C 236.526 226.933 236.667 225.431 236.454 223.959 C 236.241 222.487 235.679 221.088 234.815 219.877 C 233.951 218.666 232.811 217.679 231.489 216.998 C 230.167 216.317 228.7 215.962 227.213 215.962 L 227.213 215.951 Z M 227.213 232.926 C 225.703 232.926 224.226 232.479 222.969 231.638 C 221.714 230.799 220.735 229.607 220.156 228.21 C 219.578 226.815 219.427 225.279 219.722 223.797 C 220.017 222.315 220.744 220.955 221.812 219.886 C 222.88 218.818 224.241 218.09 225.723 217.796 C 227.205 217.501 228.741 217.652 230.137 218.23 C 231.532 218.809 232.726 219.787 233.565 221.044 C 234.405 222.299 234.852 223.777 234.852 225.287 C 234.852 227.313 234.047 229.256 232.615 230.689 C 231.183 232.121 229.239 232.926 227.213 232.926 Z" fill="#C5C5C5" style=""/>
</svg>